<svg width="2509" height="298" viewBox="0 0 2509 298" fill="none" xmlns="http://www.w3.org/2000/svg">
<path d="M1469.5 195.2L1315.7 1.3999L1315.2 0.899902H1255.3V297.6H1315.6V103.3L1469.4 297.1L1469.9 297.6H1529.8V0.899902H1469.5V195.2Z" fill="black"/>
<path d="M60.9 237.1H0.599976V297.4H60.9V237.1Z" fill="#0092FF"/>
<path d="M130.5 0.800049H0.699951V177.1H60.8V61.1001H128.8C191.2 61.1001 231.6 96 231.6 149.3C231.6 202.6 191.2 237.5 128.8 237.5H121.1V297.7H130.5C226.8 297.7 292.5 238.3 292.5 149.3C292.5 60.3 226.7 0.800049 130.5 0.800049Z" fill="black"/>
<path d="M2467 43.3C2439.9 16.3 2402.4 1.5 2361.3 1.5C2320.2 1.5 2282.6 16.4 2255.5 43.5C2228.4 70.6 2213.5 108.2 2213.5 149.3C2213.5 190.4 2228.4 228 2255.5 255.1C2282.6 282.2 2320.1 297.1 2361.3 297.1C2402.5 297.1 2440 282.2 2467 255.2C2494 228.2 2509 190.5 2509 149.2C2509 107.9 2494.1 70.4 2467 43.3ZM2298.6 83.4C2314.6 66.7 2336.9 57.5 2361.3 57.5C2385.7 57.5 2407.9 66.7 2424 83.4C2440.1 100.1 2449 123.5 2449 149.2C2449 174.9 2440.1 198.3 2424 215C2407.9 231.7 2385.7 240.9 2361.3 240.9C2336.9 240.9 2314.6 231.7 2298.6 215C2282.6 198.3 2273.6 174.9 2273.6 149.2C2273.6 123.5 2282.5 100.2 2298.6 83.4Z" fill="black"/>
<path d="M901.8 248.7L902.9 249.9C901.2 251.8 899.4 253.7 897.6 255.5C873.6 279.5 841.1 294 805.3 296.9C800.9 297.2 796.4 297.4 791.9 297.4C787.4 297.4 782.9 297.2 778.6 296.9C774.1 296.5 769.7 296 765.3 295.3C763.1 294.9 761 294.5 758.8 294.1C756.7 293.7 754.5 293.2 752.4 292.6L750 292C746.9 291.1 743.7 290.2 740.7 289.2L738.4 288.4C736.6 287.7 734.7 287 732.9 286.3C731.7 285.8 730.5 285.3 729.3 284.8C728.1 284.3 726.9 283.7 725.8 283.2C711.1 276.3 697.7 266.9 686.3 255.5C659.2 228.4 644.3 190.7 644.3 149.6C644.3 108.5 659.3 70.8001 686.3 43.7001C702.1 28.0001 721.3 16.3001 742.5 9.40009L744.6 8.7001C747.1 7.9001 749.6 7.2001 752.1 6.6001C753.8 6.2001 755.5 5.8001 757.2 5.4001C762.7 4.2001 768.3 3.3001 773.9 2.6001C776.2 2.4001 778.4 2.1001 780.7 2.0001C784.5 1.7001 788.3 1.6001 792.2 1.6001H795.1H796.7C797.6 1.6001 798.4 1.6001 799.3 1.7001C799.9 1.7001 800.6 1.7001 801.2 1.8001L803.3 1.9001H803.7C805.8 2.1001 807.9 2.2001 810 2.5001C811.1 2.6001 812.1 2.7001 813.2 2.9001L815.9 3.3001C818.2 3.6001 820.4 4.0001 822.7 4.4001C824.3 4.7001 825.8 5.0001 827.3 5.4001C828.8 5.8001 830.4 6.1001 831.9 6.5001L834.2 7.1001C836.5 7.7001 838.7 8.40011 840.9 9.10011C862.4 15.9001 881.9 27.7001 897.9 43.6001C899.9 45.6001 901.8 47.7001 903.7 49.8001L867 85.1001L866.4 85.6001L861 91.0001C859 88.4001 856.9 85.9001 854.6 83.5001C838.5 66.8001 816.3 57.6001 791.9 57.6001C769.3 57.6001 748.5 65.5001 732.8 79.9001L732.3 80.4001C731.3 81.4001 730.2 82.4001 729.2 83.4001C713.1 100.2 704.2 123.6 704.2 149.3C704.2 175 713.1 198.5 729.2 215.2C730.1 216.1 731 217.1 732 218C747.8 233 768.9 241.1 791.9 241.1C816.3 241.1 838.5 232 854.6 215.2C856.8 212.9 858.9 210.5 860.8 207.9L892.3 239.1L892.8 239.7L901.8 248.7Z" fill="black"/>
<path d="M1590.1 60.9001H1690.4V296.9H1750.7V60.9001H1851V0.600098H1590.1V60.9001Z" fill="black"/>
<path d="M2153.1 106.9C2153.1 45.6999 2103.8 0.899902 2038.5 0.899902H1911.3V297.7H1971.6V212H2017.5C2021.1 212 2024.9 212 2028.6 211.7L2086.3 297.7H2153.1L2088.9 200.4C2130.3 184.1 2153.1 149.8 2153.1 106.9ZM1971.6 61.0999H2035.9C2092.9 61.0999 2092.9 99.2999 2092.9 106.8C2092.9 114.7 2092.9 151.6 2035.9 151.6H1971.6V61.0999Z" fill="black"/>
<path d="M413 179.1H523.5V118.9H413V61.2001H583.2V0.600098H352.8V297.4H583.7V237.3H413V179.1Z" fill="black"/>
<path d="M1024.3 179.1H1134.8V118.9H1024.3V61.2001H1194.5V0.600098H964.1V297.4H1195V237.3H1024.3V179.1Z" fill="black"/>
</svg>
